<svg width="5040" height="6000" viewBox="0 0 5040 6000" fill="none" xmlns="http://www.w3.org/2000/svg">
<line x1="80.5" x2="80.5" y2="6000" stroke="#C0C0C0" stroke-opacity="0.04"/>
<line x1="160.5" x2="160.5" y2="6000" stroke="#C0C0C0" stroke-opacity="0.04"/>
<line x1="240.5" x2="240.5" y2="6000" stroke="#C0C0C0" stroke-opacity="0.04"/>
<line x1="320.5" x2="320.5" y2="6000" stroke="#C0C0C0" stroke-opacity="0.04"/>
<line x1="400.5" x2="400.5" y2="6000" stroke="#C0C0C0" stroke-opacity="0.04"/>
<line x1="480.5" x2="480.5" y2="6000" stroke="#C0C0C0" stroke-opacity="0.04"/>
<line x1="560.5" x2="560.5" y2="6000" stroke="#C0C0C0" stroke-opacity="0.04"/>
<line x1="640.5" x2="640.5" y2="6000" stroke="#C0C0C0" stroke-opacity="0.04"/>
<line x1="720.5" x2="720.5" y2="6000" stroke="#C0C0C0" stroke-opacity="0.04"/>
<line x1="800.5" x2="800.5" y2="6000" stroke="#C0C0C0" stroke-opacity="0.04"/>
<line x1="880.5" x2="880.5" y2="6000" stroke="#C0C0C0" stroke-opacity="0.04"/>
<line x1="960.5" x2="960.5" y2="6000" stroke="#C0C0C0" stroke-opacity="0.04"/>
<line x1="1040.5" x2="1040.5" y2="6000" stroke="#C0C0C0" stroke-opacity="0.04"/>
<line x1="1120.5" x2="1120.5" y2="6000" stroke="#C0C0C0" stroke-opacity="0.04"/>
<line x1="1200.5" x2="1200.5" y2="6000" stroke="#C0C0C0" stroke-opacity="0.04"/>
<line x1="1280.5" x2="1280.5" y2="6000" stroke="#C0C0C0" stroke-opacity="0.04"/>
<line x1="1360.5" x2="1360.5" y2="6000" stroke="#C0C0C0" stroke-opacity="0.04"/>
<line x1="1440.5" x2="1440.5" y2="6000" stroke="#C0C0C0" stroke-opacity="0.04"/>
<line x1="1520.5" x2="1520.5" y2="6000" stroke="#C0C0C0" stroke-opacity="0.04"/>
<line x1="1600.5" x2="1600.5" y2="6000" stroke="#C0C0C0" stroke-opacity="0.04"/>
<line x1="1680.5" x2="1680.5" y2="6000" stroke="#C0C0C0" stroke-opacity="0.04"/>
<line x1="1760.5" x2="1760.5" y2="6000" stroke="#C0C0C0" stroke-opacity="0.04"/>
<line x1="1840.5" x2="1840.5" y2="6000" stroke="#C0C0C0" stroke-opacity="0.04"/>
<line x1="1920.5" x2="1920.5" y2="6000" stroke="#C0C0C0" stroke-opacity="0.04"/>
<line x1="2000.5" x2="2000.5" y2="6000" stroke="#C0C0C0" stroke-opacity="0.04"/>
<line x1="2080.5" x2="2080.5" y2="6000" stroke="#C0C0C0" stroke-opacity="0.04"/>
<line x1="2160.5" x2="2160.5" y2="6000" stroke="#C0C0C0" stroke-opacity="0.04"/>
<line x1="2240.5" x2="2240.5" y2="6000" stroke="#C0C0C0" stroke-opacity="0.04"/>
<line x1="2320.5" x2="2320.5" y2="6000" stroke="#C0C0C0" stroke-opacity="0.04"/>
<line x1="2400.5" x2="2400.5" y2="6000" stroke="#C0C0C0" stroke-opacity="0.04"/>
<line x1="2480.5" x2="2480.5" y2="6000" stroke="#C0C0C0" stroke-opacity="0.04"/>
<line x1="2560.5" x2="2560.5" y2="6000" stroke="#C0C0C0" stroke-opacity="0.04"/>
<line x1="2640.5" x2="2640.5" y2="6000" stroke="#C0C0C0" stroke-opacity="0.04"/>
<line x1="2720.5" x2="2720.5" y2="6000" stroke="#C0C0C0" stroke-opacity="0.04"/>
<line x1="2800.5" x2="2800.5" y2="6000" stroke="#C0C0C0" stroke-opacity="0.04"/>
<line x1="2880.5" x2="2880.5" y2="6000" stroke="#C0C0C0" stroke-opacity="0.04"/>
<line x1="2960.5" x2="2960.5" y2="6000" stroke="#C0C0C0" stroke-opacity="0.04"/>
<line x1="3040.5" x2="3040.5" y2="6000" stroke="#C0C0C0" stroke-opacity="0.04"/>
<line x1="3120.5" x2="3120.5" y2="6000" stroke="#C0C0C0" stroke-opacity="0.04"/>
<line x1="3200.5" x2="3200.5" y2="6000" stroke="#C0C0C0" stroke-opacity="0.04"/>
<line x1="3280.5" x2="3280.5" y2="6000" stroke="#C0C0C0" stroke-opacity="0.04"/>
<line x1="3360.5" x2="3360.5" y2="6000" stroke="#C0C0C0" stroke-opacity="0.04"/>
<line x1="3440.5" x2="3440.5" y2="6000" stroke="#C0C0C0" stroke-opacity="0.04"/>
<line x1="3520.5" x2="3520.5" y2="6000" stroke="#C0C0C0" stroke-opacity="0.04"/>
<line x1="3600.5" x2="3600.5" y2="6000" stroke="#C0C0C0" stroke-opacity="0.04"/>
<line x1="3680.5" x2="3680.5" y2="6000" stroke="#C0C0C0" stroke-opacity="0.04"/>
<line x1="3760.5" x2="3760.5" y2="6000" stroke="#C0C0C0" stroke-opacity="0.04"/>
<line x1="3840.5" x2="3840.5" y2="6000" stroke="#C0C0C0" stroke-opacity="0.04"/>
<line x1="3920.5" x2="3920.5" y2="6000" stroke="#C0C0C0" stroke-opacity="0.04"/>
<line x1="4000.5" x2="4000.5" y2="6000" stroke="#C0C0C0" stroke-opacity="0.04"/>
<line x1="4080.5" x2="4080.5" y2="6000" stroke="#C0C0C0" stroke-opacity="0.04"/>
<line x1="4160.5" x2="4160.5" y2="6000" stroke="#C0C0C0" stroke-opacity="0.04"/>
<line x1="4240.5" x2="4240.5" y2="6000" stroke="#C0C0C0" stroke-opacity="0.04"/>
<line x1="4320.5" x2="4320.5" y2="6000" stroke="#C0C0C0" stroke-opacity="0.04"/>
<line x1="4400.5" x2="4400.5" y2="6000" stroke="#C0C0C0" stroke-opacity="0.04"/>
<line x1="4480.5" x2="4480.5" y2="6000" stroke="#C0C0C0" stroke-opacity="0.04"/>
<line x1="4560.5" x2="4560.5" y2="6000" stroke="#C0C0C0" stroke-opacity="0.04"/>
<line x1="4640.5" x2="4640.5" y2="6000" stroke="#C0C0C0" stroke-opacity="0.04"/>
<line x1="4720.5" x2="4720.5" y2="6000" stroke="#C0C0C0" stroke-opacity="0.04"/>
<line x1="4800.5" x2="4800.5" y2="6000" stroke="#C0C0C0" stroke-opacity="0.04"/>
<line x1="4880.5" x2="4880.5" y2="6000" stroke="#C0C0C0" stroke-opacity="0.04"/>
<line x1="4960.5" x2="4960.5" y2="6000" stroke="#C0C0C0" stroke-opacity="0.04"/>
<line y1="79.5" x2="5040" y2="79.5" stroke="#C0C0C0" stroke-opacity="0.04"/>
<line y1="159.5" x2="5040" y2="159.5" stroke="#C0C0C0" stroke-opacity="0.04"/>
<line y1="239.5" x2="5040" y2="239.5" stroke="#C0C0C0" stroke-opacity="0.04"/>
<line y1="319.5" x2="5040" y2="319.5" stroke="#C0C0C0" stroke-opacity="0.04"/>
<line y1="399.5" x2="5040" y2="399.5" stroke="#C0C0C0" stroke-opacity="0.04"/>
<line y1="479.5" x2="5040" y2="479.5" stroke="#C0C0C0" stroke-opacity="0.04"/>
<line y1="559.5" x2="5040" y2="559.5" stroke="#C0C0C0" stroke-opacity="0.04"/>
<line y1="639.5" x2="5040" y2="639.5" stroke="#C0C0C0" stroke-opacity="0.04"/>
<line y1="719.5" x2="5040" y2="719.5" stroke="#C0C0C0" stroke-opacity="0.04"/>
<line y1="799.5" x2="5040" y2="799.5" stroke="#C0C0C0" stroke-opacity="0.04"/>
<line y1="879.5" x2="5040" y2="879.5" stroke="#C0C0C0" stroke-opacity="0.04"/>
<line y1="959.5" x2="5040" y2="959.5" stroke="#C0C0C0" stroke-opacity="0.04"/>
<line y1="1039.5" x2="5040" y2="1039.5" stroke="#C0C0C0" stroke-opacity="0.04"/>
<line y1="1119.5" x2="5040" y2="1119.5" stroke="#C0C0C0" stroke-opacity="0.04"/>
<line y1="1199.5" x2="5040" y2="1199.5" stroke="#C0C0C0" stroke-opacity="0.04"/>
<line y1="1279.5" x2="5040" y2="1279.5" stroke="#C0C0C0" stroke-opacity="0.04"/>
<line y1="1359.5" x2="5040" y2="1359.5" stroke="#C0C0C0" stroke-opacity="0.04"/>
<line y1="1439.5" x2="5040" y2="1439.5" stroke="#C0C0C0" stroke-opacity="0.04"/>
<line y1="1519.5" x2="5040" y2="1519.5" stroke="#C0C0C0" stroke-opacity="0.04"/>
<line y1="1599.5" x2="5040" y2="1599.5" stroke="#C0C0C0" stroke-opacity="0.04"/>
<line y1="1679.5" x2="5040" y2="1679.5" stroke="#C0C0C0" stroke-opacity="0.04"/>
<line y1="1759.5" x2="5040" y2="1759.5" stroke="#C0C0C0" stroke-opacity="0.04"/>
<line y1="1839.5" x2="5040" y2="1839.5" stroke="#C0C0C0" stroke-opacity="0.04"/>
<line y1="1919.5" x2="5040" y2="1919.5" stroke="#C0C0C0" stroke-opacity="0.04"/>
<line y1="1999.5" x2="5040" y2="1999.5" stroke="#C0C0C0" stroke-opacity="0.04"/>
<line y1="2079.5" x2="5040" y2="2079.5" stroke="#C0C0C0" stroke-opacity="0.04"/>
<line y1="2159.5" x2="5040" y2="2159.5" stroke="#C0C0C0" stroke-opacity="0.04"/>
<line y1="2239.5" x2="5040" y2="2239.5" stroke="#C0C0C0" stroke-opacity="0.04"/>
<line y1="2319.5" x2="5040" y2="2319.5" stroke="#C0C0C0" stroke-opacity="0.04"/>
<line y1="2399.5" x2="5040" y2="2399.5" stroke="#C0C0C0" stroke-opacity="0.04"/>
<line y1="2479.5" x2="5040" y2="2479.5" stroke="#C0C0C0" stroke-opacity="0.04"/>
<line y1="2559.5" x2="5040" y2="2559.5" stroke="#C0C0C0" stroke-opacity="0.04"/>
<line y1="2639.5" x2="5040" y2="2639.5" stroke="#C0C0C0" stroke-opacity="0.04"/>
<line y1="2719.5" x2="5040" y2="2719.5" stroke="#C0C0C0" stroke-opacity="0.04"/>
<line y1="2799.5" x2="5040" y2="2799.5" stroke="#C0C0C0" stroke-opacity="0.04"/>
<line y1="2879.5" x2="5040" y2="2879.5" stroke="#C0C0C0" stroke-opacity="0.04"/>
<line y1="2959.5" x2="5040" y2="2959.5" stroke="#C0C0C0" stroke-opacity="0.04"/>
<line y1="3039.5" x2="5040" y2="3039.5" stroke="#C0C0C0" stroke-opacity="0.04"/>
<line y1="3119.5" x2="5040" y2="3119.5" stroke="#C0C0C0" stroke-opacity="0.04"/>
<line y1="3199.5" x2="5040" y2="3199.5" stroke="#C0C0C0" stroke-opacity="0.04"/>
<line y1="3279.5" x2="5040" y2="3279.5" stroke="#C0C0C0" stroke-opacity="0.04"/>
<line y1="3359.5" x2="5040" y2="3359.5" stroke="#C0C0C0" stroke-opacity="0.04"/>
<line y1="3439.5" x2="5040" y2="3439.5" stroke="#C0C0C0" stroke-opacity="0.04"/>
<line y1="3519.5" x2="5040" y2="3519.5" stroke="#C0C0C0" stroke-opacity="0.04"/>
<line y1="3599.5" x2="5040" y2="3599.5" stroke="#C0C0C0" stroke-opacity="0.04"/>
<line y1="3679.5" x2="5040" y2="3679.5" stroke="#C0C0C0" stroke-opacity="0.04"/>
<line y1="3759.5" x2="5040" y2="3759.5" stroke="#C0C0C0" stroke-opacity="0.04"/>
<line y1="3839.5" x2="5040" y2="3839.5" stroke="#C0C0C0" stroke-opacity="0.04"/>
<line y1="3919.5" x2="5040" y2="3919.5" stroke="#C0C0C0" stroke-opacity="0.04"/>
<line y1="3999.5" x2="5040" y2="3999.5" stroke="#C0C0C0" stroke-opacity="0.04"/>
<line y1="4079.5" x2="5040" y2="4079.5" stroke="#C0C0C0" stroke-opacity="0.04"/>
<line y1="4159.5" x2="5040" y2="4159.5" stroke="#C0C0C0" stroke-opacity="0.04"/>
<line y1="4239.5" x2="5040" y2="4239.5" stroke="#C0C0C0" stroke-opacity="0.04"/>
<line y1="4319.5" x2="5040" y2="4319.5" stroke="#C0C0C0" stroke-opacity="0.04"/>
<line y1="4399.5" x2="5040" y2="4399.5" stroke="#C0C0C0" stroke-opacity="0.04"/>
<line y1="4479.5" x2="5040" y2="4479.5" stroke="#C0C0C0" stroke-opacity="0.04"/>
<line y1="4559.5" x2="5040" y2="4559.5" stroke="#C0C0C0" stroke-opacity="0.04"/>
<line y1="4639.5" x2="5040" y2="4639.5" stroke="#C0C0C0" stroke-opacity="0.04"/>
<line y1="4719.5" x2="5040" y2="4719.5" stroke="#C0C0C0" stroke-opacity="0.04"/>
<line y1="4799.5" x2="5040" y2="4799.5" stroke="#C0C0C0" stroke-opacity="0.04"/>
<line y1="4879.5" x2="5040" y2="4879.5" stroke="#C0C0C0" stroke-opacity="0.04"/>
<line y1="4959.5" x2="5040" y2="4959.5" stroke="#C0C0C0" stroke-opacity="0.04"/>
<line y1="5039.5" x2="5040" y2="5039.5" stroke="#C0C0C0" stroke-opacity="0.04"/>
<line y1="5119.5" x2="5040" y2="5119.5" stroke="#C0C0C0" stroke-opacity="0.04"/>
<line y1="5199.5" x2="5040" y2="5199.5" stroke="#C0C0C0" stroke-opacity="0.04"/>
<line y1="5279.5" x2="5040" y2="5279.5" stroke="#C0C0C0" stroke-opacity="0.04"/>
<line y1="5359.5" x2="5040" y2="5359.5" stroke="#C0C0C0" stroke-opacity="0.04"/>
<line y1="5439.5" x2="5040" y2="5439.5" stroke="#C0C0C0" stroke-opacity="0.04"/>
<line y1="5519.5" x2="5040" y2="5519.5" stroke="#C0C0C0" stroke-opacity="0.04"/>
<line y1="5599.5" x2="5040" y2="5599.5" stroke="#C0C0C0" stroke-opacity="0.04"/>
<line y1="5679.5" x2="5040" y2="5679.5" stroke="#C0C0C0" stroke-opacity="0.04"/>
<line y1="5759.5" x2="5040" y2="5759.5" stroke="#C0C0C0" stroke-opacity="0.04"/>
<line y1="5839.5" x2="5040" y2="5839.5" stroke="#C0C0C0" stroke-opacity="0.04"/>
<line y1="5919.5" x2="5040" y2="5919.5" stroke="#C0C0C0" stroke-opacity="0.04"/>
</svg>